<svg width="42" height="41" fill="none" xmlns="http://www.w3.org/2000/svg"><path d="M27.424.216c.299.47.555 1.11.768 1.92a7.64 7.64 0 01.384 2.432c0 1.664-.363 2.859-1.088 3.584-.683.683-1.621 1.024-2.816 1.024h-13.44v7.232h14.016c.341.47.619 1.088.832 1.856a7.64 7.64 0 01.384 2.432c0 1.621-.363 2.795-1.088 3.52-.683.683-1.621 1.024-2.816 1.024h-11.2v13.504c-.47.128-1.216.256-2.24.384-.981.128-1.963.192-2.944.192-.981 0-1.856-.085-2.624-.256-.725-.128-1.344-.384-1.856-.768s-.896-.917-1.152-1.6C.288 36.013.16 35.117.16 34.008V6.168c0-1.835.533-3.285 1.6-4.352C2.827.749 4.277.216 6.112.216h21.312zm1.422 33.6c0-1.792.554-3.285 1.663-4.48 1.11-1.195 2.624-1.792 4.544-1.792 1.92 0 3.435.597 4.544 1.792 1.11 1.195 1.664 2.688 1.664 4.48 0 1.792-.554 3.285-1.664 4.48-1.109 1.195-2.623 1.792-4.544 1.792-1.92 0-3.434-.597-4.543-1.792-1.11-1.195-1.665-2.688-1.665-4.48z" fill="#FEFEFE"/></svg>