<svg width="11" height="17" fill="none" xmlns="http://www.w3.org/2000/svg"><path d="M9.745 8.427c-.072 1.042-.666 1.773-1.352 2.083-.728.329-1.463.148-1.83-.451-.601-.98-.188-1.662.211-2.322.453-.748.966-1.596.474-3.245-.389-1.302-1.15-2.395-2.262-3.248a6.989 6.989 0 00-.943-.61c.373.908.858 2.596.351 4.462-.321 1.184-1.17 2.08-1.991 2.948-1.081 1.143-2.2 2.324-2.2 4.211 0 1.464.51 2.631 1.517 3.467.762.633 1.539.88 1.547.882h1.855-.039c-.007-.006-.714-.564-.726-1.204-.006-.299.151-.586.466-.853.474-.4.734-.831.796-1.318.038-.298 0-.612-.117-.952.785.33 1.597 1.048 1.873 1.94.247.802.018 1.627-.66 2.387h2.03c1.33-1.042 2.078-2.29 2.225-3.71.187-1.812-.641-3.518-1.225-4.467z" fill="#171717"/></svg>