<svg width="475" height="267" fill="none" xmlns="http://www.w3.org/2000/svg"><path d="M23.788 259.609l.029.704c.465-.547 1.092-.821 1.88-.821.887 0 1.491.34 1.811 1.02a2.4 2.4 0 01.82-.738c.34-.188.74-.282 1.202-.282 1.39 0 2.097.737 2.12 2.209v4.248h-1.083v-4.183c0-.453-.104-.791-.31-1.014-.208-.226-.555-.34-1.044-.34-.402 0-.736.121-1.002.364-.265.238-.42.56-.462.966v4.207h-1.09v-4.154c0-.922-.451-1.383-1.354-1.383-.71 0-1.197.303-1.459.908v4.629h-1.084v-6.34h1.026zm9.216 3.112c0-.621.122-1.18.364-1.676a2.754 2.754 0 011.02-1.148c.437-.27.935-.405 1.493-.405.864 0 1.56.299 2.092.897.535.597.803 1.392.803 2.385v.076c0 .617-.12 1.172-.358 1.664a2.668 2.668 0 01-1.013 1.142c-.438.274-.942.411-1.512.411-.86 0-1.557-.299-2.092-.897-.531-.598-.797-1.389-.797-2.373v-.076zm1.09.129c0 .703.162 1.267.487 1.693.328.426.765.639 1.312.639.55 0 .988-.215 1.313-.645.324-.433.486-1.039.486-1.816 0-.695-.166-1.258-.498-1.688a1.565 1.565 0 00-1.313-.65c-.535 0-.966.213-1.295.639-.328.425-.492 1.035-.492 1.828zm7.067-3.241l.035.797c.484-.609 1.117-.914 1.898-.914 1.34 0 2.016.756 2.028 2.268v4.189h-1.084v-4.195c-.004-.457-.11-.795-.317-1.014-.203-.218-.521-.328-.955-.328-.351 0-.66.094-.926.281a1.914 1.914 0 00-.62.739v4.517h-1.085v-6.34h1.026zM8.268 232.641c0 1.269-.217 2.213-.65 2.83-.434.617-1.112.926-2.034.926-.91 0-1.584-.301-2.021-.903-.438-.605-.664-1.508-.68-2.707v-1.447c0-1.254.217-2.186.65-2.795.434-.609 1.114-.914 2.04-.914.918 0 1.593.295 2.027.885.434.586.656 1.492.668 2.718v1.407zm-1.084-1.483c0-.918-.129-1.586-.387-2.004-.258-.421-.666-.632-1.224-.632-.555 0-.96.209-1.213.627-.254.418-.385 1.06-.393 1.927v1.735c0 .922.133 1.603.399 2.045.27.437.675.656 1.218.656.536 0 .932-.207 1.19-.621.262-.414.398-1.067.41-1.957v-1.776zm-.704-39.805H5.392v-7.225l-2.186.803v-.984l3.106-1.166h.17v8.572zm2.028-44.926h-5.59v-.78l2.954-3.281c.437-.496.738-.898.902-1.207a2.02 2.02 0 00.252-.967c0-.445-.135-.81-.404-1.096-.27-.285-.63-.427-1.079-.427-.539 0-.959.154-1.26.463-.296.304-.445.73-.445 1.277H2.754c0-.785.252-1.42.756-1.904.508-.485 1.186-.727 2.033-.727.793 0 1.42.209 1.881.627.461.414.692.967.692 1.658 0 .84-.536 1.84-1.606 3l-2.285 2.479h4.283v.885zm-4.013-49.72h.814c.512-.008.914-.142 1.207-.404.293-.262.44-.615.44-1.06 0-1-.499-1.5-1.495-1.5-.468 0-.843.134-1.125.404-.277.265-.416.619-.416 1.06H2.836c0-.676.246-1.236.739-1.681.496-.45 1.125-.674 1.886-.674.805 0 1.436.212 1.893.638.457.426.685 1.018.685 1.776 0 .37-.12.73-.363 1.078a2.157 2.157 0 01-.978.78c.468.148.83.394 1.084.737.257.344.386.764.386 1.26 0 .766-.25 1.373-.75 1.822-.5.45-1.15.674-1.95.674-.802 0-1.454-.217-1.958-.65-.5-.434-.75-1.006-.75-1.717h1.09c0 .45.147.809.44 1.078.292.27.685.405 1.177.405.524 0 .924-.137 1.201-.411.278-.273.416-.666.416-1.177 0-.496-.152-.877-.457-1.143-.304-.266-.744-.402-1.318-.41h-.814v-.885zm3-42.999h1.183v.885H7.495v1.98h-1.09v-1.98H2.52v-.639l3.82-5.912h1.155v5.666zm-3.745 0h2.655v-4.183l-.13.234-2.525 3.95zM3.416 7.37l.434-4.254h4.371v1.002H4.77l-.258 2.326a2.755 2.755 0 011.424-.369c.777 0 1.394.258 1.852.773.457.512.685 1.205.685 2.08 0 .88-.238 1.573-.715 2.08-.472.505-1.135.756-1.986.756-.754 0-1.37-.208-1.846-.627-.476-.418-.748-.996-.814-1.734h1.025c.067.488.24.857.522 1.107.28.247.652.37 1.113.37.504 0 .898-.172 1.183-.516.29-.344.434-.818.434-1.424 0-.57-.156-1.027-.469-1.37-.308-.349-.72-.522-1.236-.522-.473 0-.844.103-1.113.31l-.287.235-.868-.223zm92.837 250.704v1.535h1.184v.838h-1.184v3.932c0 .254.053.445.158.574.106.125.285.188.54.188.124 0 .296-.024.515-.071v.879a3.15 3.15 0 01-.832.118c-.484 0-.85-.147-1.096-.44-.246-.293-.369-.709-.369-1.248v-3.932h-1.154v-.838h1.154v-1.535h1.084zm6.369 7.248c-.422.496-1.041.745-1.857.745-.676 0-1.192-.196-1.547-.586-.352-.395-.53-.977-.533-1.747v-4.125h1.084v4.096c0 .961.39 1.442 1.172 1.442.828 0 1.379-.309 1.652-.926v-4.612h1.084v6.34h-1.031l-.024-.627zm5.338.745c-.859 0-1.558-.282-2.097-.844-.54-.567-.809-1.322-.809-2.268v-.199c0-.629.119-1.189.357-1.682a2.83 2.83 0 011.008-1.16 2.54 2.54 0 011.406-.422c.825 0 1.465.272 1.922.815.457.543.686 1.32.686 2.332v.451h-4.295c.016.625.197 1.131.545 1.518.351.382.797.574 1.336.574.383 0 .707-.078.972-.235.266-.156.499-.363.698-.621l.662.516c-.531.816-1.328 1.225-2.391 1.225zm-.135-5.684c-.437 0-.804.16-1.101.48-.297.317-.481.762-.551 1.336h3.176v-.082c-.031-.55-.18-.976-.445-1.277-.266-.305-.625-.457-1.079-.457zm56.455 4.072l1.218-4.846h1.084l-1.845 6.34h-.879l-1.541-4.804-1.5 4.804h-.879l-1.84-6.34h1.078l1.248 4.747 1.477-4.747h.873l1.506 4.846zm6.041 1.612c-.86 0-1.559-.282-2.098-.844-.539-.567-.809-1.322-.809-2.268v-.199c0-.629.119-1.189.358-1.682a2.816 2.816 0 011.008-1.16 2.535 2.535 0 011.406-.422c.824 0 1.465.272 1.922.815.457.543.685 1.32.685 2.332v.451h-4.295c.016.625.198 1.131.545 1.518.352.382.797.574 1.336.574.383 0 .707-.078.973-.235.265-.156.498-.363.697-.621l.662.516c-.531.816-1.328 1.225-2.39 1.225zm-.135-5.684c-.438 0-.805.16-1.102.48-.297.317-.48.762-.551 1.336h3.176v-.082c-.031-.55-.179-.976-.445-1.277-.266-.305-.625-.457-1.078-.457zm3.603 2.344c0-.973.231-1.754.692-2.344.461-.594 1.064-.891 1.81-.891.742 0 1.33.254 1.764.762v-3.305h1.084v9h-.996l-.053-.679c-.434.531-1.037.797-1.81.797-.735 0-1.334-.301-1.799-.903-.461-.601-.692-1.387-.692-2.355v-.082zm1.084.123c0 .718.149 1.281.446 1.687.296.406.707.61 1.23.61.688 0 1.19-.309 1.506-.926v-2.912c-.324-.598-.822-.897-1.494-.897-.531 0-.946.205-1.242.615-.297.411-.446 1.018-.446 1.823zm56.117-4.776v1.535h1.184v.838h-1.184v3.932c0 .254.053.445.159.574.105.125.285.188.539.188.125 0 .297-.024.515-.071v.879a3.146 3.146 0 01-.832.118c-.484 0-.849-.147-1.095-.44-.246-.293-.37-.709-.37-1.248v-3.932h-1.154v-.838h1.154v-1.535h1.084zm3.54 2.303c.48-.59 1.105-.885 1.875-.885 1.339 0 2.015.756 2.027 2.268v4.189h-1.084v-4.195c-.004-.457-.109-.795-.317-1.014-.203-.218-.521-.328-.955-.328-.351 0-.66.094-.925.281a1.906 1.906 0 00-.621.739v4.517h-1.084v-9h1.084v3.428zm9.439 4.945c-.422.496-1.041.745-1.857.745-.676 0-1.192-.196-1.547-.586-.352-.395-.53-.977-.534-1.747v-4.125h1.084v4.096c0 .961.391 1.442 1.172 1.442.828 0 1.379-.309 1.653-.926v-4.612h1.084v6.34h-1.032l-.023-.627zm49.968.627v-5.502h-1.002v-.838h1.002v-.65c0-.68.181-1.205.545-1.576.363-.371.877-.557 1.541-.557.25 0 .498.033.744.1l-.059.879a3.122 3.122 0 00-.586-.053c-.351 0-.623.104-.814.311-.192.203-.287.496-.287.879v.667h1.353v.838h-1.353v5.502h-1.084zm6.703-5.367a3.287 3.287 0 00-.533-.041c-.711 0-1.194.303-1.448.908v4.5h-1.084v-6.34h1.055l.018.733c.355-.566.859-.85 1.511-.85.211 0 .372.028.481.082v1.008zm2.18 5.367h-1.084v-6.34h1.084v6.34zm-1.172-8.021a.65.65 0 01.158-.445c.109-.122.269-.182.48-.182.211 0 .371.06.481.182a.64.64 0 01.164.445.619.619 0 01-.164.439c-.11.117-.27.176-.481.176-.211 0-.371-.059-.48-.176a.628.628 0 01-.158-.439zm52.362 6.34a.79.79 0 00-.334-.68c-.219-.164-.604-.305-1.155-.422-.546-.117-.982-.258-1.306-.422-.32-.164-.559-.359-.715-.586a1.415 1.415 0 01-.229-.808c0-.52.219-.959.657-1.319.441-.359 1.004-.539 1.687-.539.719 0 1.301.186 1.746.557.45.371.674.846.674 1.424h-1.09c0-.297-.127-.553-.381-.768-.25-.215-.566-.322-.949-.322-.394 0-.703.086-.926.258a.813.813 0 00-.334.674c0 .261.104.459.311.591.207.133.58.26 1.119.381.543.121.983.266 1.319.434.335.168.584.371.744.609.164.235.246.522.246.862 0 .566-.227 1.021-.68 1.365-.453.34-1.041.51-1.764.51-.507 0-.957-.09-1.347-.27a2.22 2.22 0 01-.92-.75 1.837 1.837 0 01-.328-1.049h1.084c.019.363.164.653.433.867.274.211.633.317 1.078.317.411 0 .739-.082.985-.246.25-.168.375-.391.375-.668zm6.41 1.681c-.063-.125-.113-.347-.152-.668-.504.524-1.106.786-1.805.786-.625 0-1.139-.176-1.541-.528a1.726 1.726 0 01-.598-1.347c0-.661.25-1.172.75-1.536.504-.367 1.211-.55 2.121-.55h1.055v-.498c0-.379-.113-.68-.34-.903-.226-.226-.56-.34-1.002-.34-.387 0-.711.098-.972.293-.262.196-.393.432-.393.709h-1.09c0-.316.111-.621.334-.914.227-.297.531-.531.914-.703a3.097 3.097 0 011.272-.258c.73 0 1.302.184 1.716.551.415.363.629.865.645 1.506v2.918c0 .582.074 1.045.223 1.389v.093h-1.137zm-1.799-.826c.34 0 .662-.088.967-.264a1.59 1.59 0 00.662-.685v-1.301h-.85c-1.328 0-1.992.389-1.992 1.166 0 .34.113.606.34.797.227.191.518.287.873.287zm5.883-7.049v1.535h1.184v.838h-1.184v3.932c0 .254.053.445.158.574.106.125.285.188.539.188.125 0 .297-.024.516-.071v.879a3.152 3.152 0 01-.832.118c-.485 0-.85-.147-1.096-.44-.246-.293-.369-.709-.369-1.248v-3.932h-1.154v-.838h1.154v-1.535h1.084zm53.389 6.194c0-.293-.111-.52-.334-.68-.218-.164-.603-.305-1.154-.422-.547-.117-.982-.258-1.307-.422-.32-.164-.558-.359-.714-.586a1.408 1.408 0 01-.229-.808c0-.52.219-.959.656-1.319.442-.359 1.004-.539 1.688-.539.719 0 1.301.186 1.746.557.449.371.674.846.674 1.424h-1.09c0-.297-.127-.553-.381-.768-.25-.215-.566-.322-.949-.322-.395 0-.703.086-.926.258a.81.81 0 00-.334.674c0 .261.104.459.311.591.207.133.58.26 1.119.381.543.121.982.266 1.318.434.336.168.584.371.744.609.164.235.246.522.246.862a1.63 1.63 0 01-.679 1.365c-.454.34-1.041.51-1.764.51-.508 0-.957-.09-1.348-.27-.39-.18-.697-.43-.92-.75a1.845 1.845 0 01-.328-1.049h1.084c.02.363.164.653.434.867.273.211.633.317 1.078.317.41 0 .738-.082.984-.246.25-.168.375-.391.375-.668zm6.41 1.054c-.421.496-1.041.745-1.857.745-.676 0-1.191-.196-1.547-.586-.351-.395-.529-.977-.533-1.747v-4.125h1.084v4.096c0 .961.391 1.442 1.172 1.442.828 0 1.379-.309 1.652-.926v-4.612h1.084v6.34h-1.031l-.024-.627zm3.733-5.713l.035.797c.484-.609 1.117-.914 1.898-.914 1.34 0 2.016.756 2.028 2.268v4.189h-1.084v-4.195c-.004-.457-.11-.795-.317-1.014-.203-.218-.521-.328-.955-.328-.351 0-.66.094-.925.281a1.917 1.917 0 00-.622.739v4.517h-1.084v-6.34h1.026z" fill="#171717"/><path d="M35.138 234h391M35.169 189h391M35.138 144h391m-391-45h391m-391-45h391m-391-45h391" stroke="#FAFAFA"/><g filter="url(#filter0_d)"><path d="M110.781 166.199a5.53 5.53 0 11-11.06-.001 5.53 5.53 0 0111.06.001z" fill="#171717"/></g><g opacity=".3" filter="url(#filter1_f)"><path fill-rule="evenodd" clip-rule="evenodd" d="M94.036 138.684h35.336a4 4 0 014 4v9.858a4 4 0 01-4 4h-13.177l-.649.524a.4.4 0 01-.502 0l-.648-.524h-20.36a4 4 0 01-4-4v-9.858a4 4 0 014-4z" fill="#171717"/></g><path fill-rule="evenodd" clip-rule="evenodd" d="M83.932 129.281h42a4 4 0 014 4v14a4 4 0 01-4 4h-14l-6.74 5.776a.398.398 0 01-.52 0l-6.74-5.776h-14a4 4 0 01-4-4v-14a4 4 0 014-4z" fill="#fff"/><path d="M95.977 144.281v-7.284h-.094l-2.15 1.559v-1.113l2.25-1.617h1.049v8.455h-1.055zm4.214 2.15h-.879l.563-3.334h1.183l-.867 3.334zm5.438-1.951c-.801 0-1.463-.225-1.986-.674-.524-.453-.809-1.045-.856-1.775h1.037c.047.457.237.826.569 1.107.336.277.752.416 1.248.416.566 0 1.021-.178 1.365-.533.348-.356.522-.822.522-1.401 0-.578-.174-1.046-.522-1.406-.344-.363-.793-.545-1.348-.545-.382 0-.726.084-1.031.252a1.79 1.79 0 00-.715.697h-.99l.463-4.792h4.717v.943h-3.891l-.24 2.713h.094c.41-.481 1.006-.721 1.787-.721.804 0 1.461.264 1.969.791.507.527.761 1.207.761 2.039 0 .86-.273 1.557-.82 2.092-.547.531-1.258.797-2.133.797zm4.905-.199v-8.825h1.008v3.504h.094c.16-.355.404-.629.732-.82.332-.191.737-.287 1.213-.287.672 0 1.203.207 1.594.621.39.41.586.982.586 1.717v4.09h-1.008v-3.844c0-1.117-.486-1.676-1.459-1.676-.555 0-.986.162-1.295.486-.305.321-.457.752-.457 1.295v3.739h-1.008z" fill="#171717"/><g filter="url(#filter2_d)"><path d="M178.149 122.752a5.53 5.53 0 11-11.058 0 5.53 5.53 0 0111.058 0z" fill="#171717"/></g><g opacity=".3" filter="url(#filter3_f)"><path fill-rule="evenodd" clip-rule="evenodd" d="M161.404 95.237h35.336a4 4 0 014 4v9.858a4 4 0 01-4 4h-13.177l-.648.524a.402.402 0 01-.503 0l-.648-.524h-20.36a4 4 0 01-4-4v-9.858a4 4 0 014-4z" fill="#171717"/></g><path fill-rule="evenodd" clip-rule="evenodd" d="M151.3 85.833h42a4 4 0 014 4v14a4 4 0 01-4 4h-14l-6.74 5.777a.398.398 0 01-.52 0l-6.74-5.777h-14a4 4 0 01-4-4v-14a4 4 0 014-4z" fill="#fff"/><path d="M160.386 94.757c0-.75.254-1.367.762-1.852.512-.484 1.16-.726 1.945-.726.758 0 1.393.228 1.905.686.515.453.773 1.015.773 1.687 0 .441-.125.875-.375 1.3-.25.427-.721 1.01-1.412 1.753l-2.033 2.185v.094h3.961v.949h-5.473v-.726l2.924-3.194c.543-.59.904-1.039 1.084-1.347a1.9 1.9 0 00.269-.973c0-.422-.16-.775-.48-1.06-.316-.29-.707-.434-1.172-.434-.496 0-.896.152-1.201.457-.305.305-.457.705-.457 1.201v.006h-1.02v-.006zm8.058 8.227h-.879l.562-3.334h1.184l-.867 3.334zm5.438-1.951c-.801 0-1.463-.225-1.986-.674-.524-.453-.809-1.045-.856-1.776h1.037c.047.457.237.826.569 1.108.336.277.752.416 1.248.416.566 0 1.021-.178 1.365-.534.348-.355.521-.822.521-1.4s-.173-1.047-.521-1.406c-.344-.363-.793-.545-1.348-.545-.382 0-.726.084-1.031.252a1.779 1.779 0 00-.715.697h-.99l.463-4.793h4.717v.944h-3.891l-.24 2.712h.094c.41-.48 1.005-.72 1.787-.72.804 0 1.461.263 1.968.79.508.528.762 1.208.762 2.04 0 .86-.273 1.556-.82 2.092-.547.531-1.258.797-2.133.797zm4.905-.2v-8.824h1.008v3.504h.094c.16-.356.404-.629.732-.82.332-.192.736-.287 1.213-.287.672 0 1.203.207 1.594.62.39.41.586.983.586 1.717v4.09h-1.008V96.99c0-1.118-.486-1.676-1.459-1.676-.555 0-.986.162-1.295.486-.305.32-.457.752-.457 1.295v3.738h-1.008z" fill="#171717"/><g filter="url(#filter4_d)"><path d="M305.917 53.044a5.529 5.529 0 11-11.057 0 5.529 5.529 0 0111.057 0z" fill="#171717"/></g><g opacity=".3" filter="url(#filter5_f)"><path fill-rule="evenodd" clip-rule="evenodd" d="M289.172 25.53h35.336a4 4 0 014 4v9.857a4 4 0 01-4 4h-13.177l-.648.524a.4.4 0 01-.503 0l-.648-.524h-20.36a4 4 0 01-4-4V29.53a4 4 0 014-4z" fill="#171717"/></g><path fill-rule="evenodd" clip-rule="evenodd" d="M279.068 16.125h42a4 4 0 014 4v14a4 4 0 01-4 4h-14l-6.74 5.777a.4.4 0 01-.52 0l-6.74-5.777h-14a4 4 0 01-4-4v-14a4 4 0 014-4z" fill="#fff"/><path d="M297.249 31.125v-1.752h-4.119v-.96c.773-1.375 1.98-3.29 3.621-5.743h1.529v5.76h1.201v.943h-1.201v1.752h-1.031zm-3.041-2.76v.07h3.047V23.65h-.07c-.915 1.328-1.907 2.9-2.977 4.717zm7.167 2.76v-8.824h1.008v3.504h.093c.16-.355.405-.629.733-.82.332-.192.736-.287 1.213-.287.672 0 1.203.207 1.593.62.391.41.586.983.586 1.718v4.09h-1.007v-3.844c0-1.117-.487-1.676-1.459-1.676-.555 0-.987.162-1.295.486-.305.32-.457.752-.457 1.295v3.738h-1.008zM34.407 233.469a1 1 0 001.447 1.381l-1.447-1.381zm205.935-42.671c6.414 0 11.579-2.249 15.738-6.176 4.134-3.904 7.24-9.428 9.655-15.944 4.823-13.017 6.999-30.318 8.878-47.468 1.888-17.222 3.478-34.287 7.083-47.066 1.802-6.387 4.081-11.597 7.075-15.197 2.963-3.56 6.619-5.543 11.295-5.543v-2c-5.351 0-9.544 2.312-12.832 6.264-3.257 3.915-5.63 9.438-7.463 15.932-3.662 12.983-5.268 30.266-7.146 47.392-1.885 17.198-4.043 34.246-8.766 46.991-2.358 6.364-5.327 11.574-9.152 15.184-3.798 3.587-8.475 5.631-14.365 5.631v2zm59.724-137.394c9.326 0 15.112 2.78 19.229 6.862 4.174 4.141 6.706 9.684 9.384 15.446 2.646 5.696 5.433 11.598 10.148 16.041 4.767 4.492 11.416 7.425 21.642 7.425v-2c-9.796 0-15.929-2.79-20.27-6.88-4.392-4.139-7.036-9.68-9.707-15.428-2.639-5.68-5.311-11.582-9.789-16.024-4.536-4.5-10.851-7.442-20.637-7.442v2zm60.403 45.774c19.525 0 29.645 11.03 37.934 22.332 4.114 5.611 7.853 11.408 12.013 15.736 4.203 4.372 8.985 7.414 15.288 7.414v-2c-5.555 0-9.851-2.644-13.846-6.8-4.038-4.2-7.618-9.773-11.842-15.533-8.39-11.438-19.03-23.15-39.547-23.15v2zM172.876 123.09c7.597 0 13.61 3.998 18.895 10.226 5.302 6.249 9.756 14.608 14.249 23.096 4.466 8.435 8.971 17.002 14.339 23.447 5.384 6.463 11.758 10.939 19.983 10.939v-2c-7.39 0-13.255-3.987-18.446-10.219-5.207-6.251-9.613-14.611-14.108-23.103-4.467-8.439-9.022-17.007-14.492-23.454-5.487-6.467-12.008-10.932-20.42-10.932v2zM35.853 234.85c3.69-3.867 7.826-10.049 12.425-17.036 4.622-7.022 9.748-14.917 15.469-22.338 11.492-14.907 25.119-27.543 41.414-27.543v-2c-17.338 0-31.496 13.403-42.998 28.322-5.776 7.493-10.947 15.457-15.556 22.46-4.633 7.038-8.662 13.046-12.2 16.754l1.447 1.381zm69.308-66.917c11.152 0 19.118-2.856 25.264-7.19 6.121-4.315 10.369-10.052 14.149-15.674 3.815-5.672 7.108-11.143 11.394-15.25 4.224-4.048 9.381-6.729 16.908-6.729v-2c-8.102 0-13.741 2.924-18.292 7.285-4.487 4.3-7.946 10.04-11.67 15.578-3.759 5.59-7.838 11.064-13.641 15.156-5.779 4.074-13.334 6.824-24.112 6.824v2z" fill="#171717"/><g filter="url(#filter6_d)"><path d="M40.797 232.24a5.529 5.529 0 11-11.058 0 5.529 5.529 0 0111.058 0z" fill="#171717"/></g><g opacity=".3" filter="url(#filter7_f)"><path fill-rule="evenodd" clip-rule="evenodd" d="M24.052 204.726h35.336a4 4 0 014 4v9.858a4 4 0 01-4 4H46.211l-.649.523a.399.399 0 01-.502 0l-.649-.523H24.052a4 4 0 01-4-4v-9.858a4 4 0 014-4z" fill="#171717"/></g><path fill-rule="evenodd" clip-rule="evenodd" d="M13.948 195.322h42a4 4 0 014 4v14a4 4 0 01-4 4h-14l-6.74 5.777a.401.401 0 01-.52 0l-6.74-5.777h-14a4 4 0 01-4-4v-14a4 4 0 014-4z" fill="#fff"/><path d="M31.191 210.521c-.953 0-1.691-.387-2.215-1.16-.523-.773-.785-1.863-.785-3.27 0-1.394.264-2.48.791-3.257.527-.778 1.264-1.166 2.21-1.166.94 0 1.673.39 2.196 1.171.528.782.791 1.872.791 3.27 0 1.402-.261 2.488-.785 3.258-.52.769-1.254 1.154-2.203 1.154zm-1.441-1.828c.336.605.816.908 1.441.908.625 0 1.102-.301 1.43-.902.332-.606.498-1.475.498-2.608 0-1.121-.168-1.984-.504-2.589-.332-.606-.807-.909-1.424-.909-.617 0-1.096.305-1.435.914-.336.606-.504 1.467-.504 2.584 0 1.129.166 1.997.498 2.602zm6.422 1.629v-8.824h1.008v3.504h.094c.16-.356.404-.629.732-.821.332-.191.737-.287 1.213-.287.672 0 1.203.207 1.594.621.39.41.586.983.586 1.717v4.09H40.39v-3.844c0-1.117-.486-1.676-1.459-1.676-.555 0-.986.162-1.295.487-.304.32-.457.752-.457 1.295v3.738h-1.008z" fill="#171717"/><g filter="url(#filter8_d)"><path d="M245.518 189.478a5.529 5.529 0 11-11.058-.002 5.529 5.529 0 0111.058.002z" fill="#171717"/></g><g opacity=".3" filter="url(#filter9_f)"><path fill-rule="evenodd" clip-rule="evenodd" d="M228.773 161.963h35.336a4 4 0 014 4v9.858a4 4 0 01-4 4h-13.177l-.648.524a.402.402 0 01-.503 0l-.648-.524h-20.36a4 4 0 01-4-4v-9.858a4 4 0 014-4z" fill="#171717"/></g><path fill-rule="evenodd" clip-rule="evenodd" d="M218.669 152.559h42a4 4 0 014 4v14a4 4 0 01-4 4h-14l-6.74 5.777a.4.4 0 01-.52 0l-6.74-5.777h-14a4 4 0 01-4-4v-14a4 4 0 014-4z" fill="#fff"/><path d="M236.071 167.559v-7.283h-.094l-2.151 1.559v-1.114l2.25-1.617h1.049v8.455h-1.054zm3.844 0v-8.824h1.008v3.504h.094c.16-.356.404-.629.732-.82.332-.192.736-.288 1.213-.288.672 0 1.203.207 1.594.622.39.41.586.982.586 1.716v4.09h-1.008v-3.844c0-1.117-.487-1.675-1.459-1.675-.555 0-.987.162-1.295.486-.305.32-.457.752-.457 1.295v3.738h-1.008z" fill="#171717"/><g filter="url(#filter10_d)"><path d="M366.317 98.06a5.53 5.53 0 11-11.058-.001 5.53 5.53 0 0111.058 0z" fill="#171717"/></g><g opacity=".3" filter="url(#filter11_f)"><path fill-rule="evenodd" clip-rule="evenodd" d="M349.572 70.544h35.336a4 4 0 014 4v9.859a4 4 0 01-4 4H371.73l-.648.523a.4.4 0 01-.503 0l-.648-.523h-20.359a4 4 0 01-4-4v-9.859a4 4 0 014-4z" fill="#171717"/></g><path fill-rule="evenodd" clip-rule="evenodd" d="M339.468 61.14h42a4 4 0 014 4v14a4 4 0 01-4 4h-14l-6.74 5.778a.4.4 0 01-.521 0l-6.739-5.777h-14a4 4 0 01-4-4v-14a4 4 0 014-4z" fill="#fff"/><path d="M355.615 72.244v-.902h1.026c.48 0 .873-.14 1.177-.422.309-.281.463-.64.463-1.078 0-.43-.148-.775-.445-1.037-.297-.266-.69-.399-1.178-.399s-.883.13-1.183.387c-.301.254-.473.607-.516 1.06h-1.025c.054-.734.328-1.312.82-1.734.492-.422 1.14-.632 1.945-.632.485 0 .93.1 1.336.298a2.4 2.4 0 01.967.803c.234.34.351.711.351 1.113 0 .504-.13.93-.392 1.278-.262.347-.625.578-1.09.691v.094c.574.074 1.025.299 1.354.674.328.37.492.845.492 1.424 0 .695-.287 1.283-.862 1.763-.574.477-1.279.715-2.115.715-.859 0-1.56-.219-2.103-.656-.543-.442-.834-1.024-.873-1.746h1.019a1.5 1.5 0 00.598 1.078c.351.27.801.404 1.347.404.555 0 1.01-.148 1.366-.445.359-.297.539-.678.539-1.143 0-.488-.174-.875-.522-1.16-.347-.285-.822-.428-1.424-.428h-1.072zm6.06 3.897v-8.824h1.007v3.504h.094c.16-.356.404-.63.733-.82.332-.192.736-.288 1.212-.288.672 0 1.204.207 1.594.621.391.41.586.983.586 1.717v4.09h-1.008v-3.844c0-1.117-.486-1.676-1.459-1.676-.554 0-.986.162-1.295.487-.304.32-.457.751-.457 1.294v3.739h-1.007z" fill="#171717"/><g filter="url(#filter12_d)"><path d="M431.942 144.277a5.529 5.529 0 11-11.058 0 5.529 5.529 0 0111.058 0z" fill="#171717"/></g><g opacity=".3" filter="url(#filter13_f)"><path fill-rule="evenodd" clip-rule="evenodd" d="M415.198 116.762h35.336a4 4 0 014 4v9.858a4 4 0 01-4 4h-13.178l-.648.524a.402.402 0 01-.503 0l-.648-.524h-20.359a4 4 0 01-4-4v-9.858a4 4 0 014-4z" fill="#171717"/></g><path fill-rule="evenodd" clip-rule="evenodd" d="M405.094 107.358h42a4 4 0 014 4v14a4 4 0 01-4 4h-14l-6.74 5.777a.4.4 0 01-.521 0l-6.739-5.777h-14a4 4 0 01-4-4v-14a4 4 0 014-4z" fill="#fff"/><path d="M419.595 116.282c0-.75.254-1.367.761-1.851.512-.485 1.161-.727 1.946-.727.758 0 1.392.229 1.904.686.516.453.773 1.015.773 1.687 0 .441-.125.875-.375 1.301-.25.426-.72 1.01-1.412 1.752l-2.033 2.185v.094h3.961v.949h-5.473v-.726l2.924-3.194c.543-.589.905-1.039 1.084-1.347.18-.309.27-.633.27-.973 0-.422-.16-.775-.481-1.06-.316-.29-.707-.434-1.172-.434-.496 0-.896.152-1.201.457-.304.305-.457.705-.457 1.201v.006h-1.019v-.006zm7.571 6.076v-8.824h1.008v3.504h.093c.16-.355.405-.629.733-.82.332-.192.736-.287 1.213-.287.672 0 1.203.207 1.593.621.391.41.586.982.586 1.716v4.09h-1.007v-3.843c0-1.118-.487-1.676-1.459-1.676-.555 0-.987.162-1.295.486-.305.32-.457.752-.457 1.295v3.738h-1.008z" fill="#171717"/><defs><filter id="filter0_d" x="97.723" y="159.67" width="15.058" height="15.058" filterUnits="userSpaceOnUse" color-interpolation-filters="sRGB"><feFlood flood-opacity="0" result="BackgroundImageFix"/><feColorMatrix in="SourceAlpha" values="0 0 0 0 0 0 0 0 0 0 0 0 0 0 0 0 0 0 127 0"/><feOffset dy="1"/><feGaussianBlur stdDeviation="1"/><feColorMatrix values="0 0 0 0 0.215686 0 0 0 0 0.317647 0 0 0 0 1 0 0 0 0.2 0"/><feBlend in2="BackgroundImageFix" result="effect1_dropShadow"/><feBlend in="SourceGraphic" in2="effect1_dropShadow" result="shape"/></filter><filter id="filter1_f" x="70.036" y="118.684" width="83.336" height="58.471" filterUnits="userSpaceOnUse" color-interpolation-filters="sRGB"><feFlood flood-opacity="0" result="BackgroundImageFix"/><feBlend in="SourceGraphic" in2="BackgroundImageFix" result="shape"/><feGaussianBlur stdDeviation="10" result="effect1_foregroundBlur"/></filter><filter id="filter2_d" x="165.091" y="116.223" width="15.058" height="15.058" filterUnits="userSpaceOnUse" color-interpolation-filters="sRGB"><feFlood flood-opacity="0" result="BackgroundImageFix"/><feColorMatrix in="SourceAlpha" values="0 0 0 0 0 0 0 0 0 0 0 0 0 0 0 0 0 0 127 0"/><feOffset dy="1"/><feGaussianBlur stdDeviation="1"/><feColorMatrix values="0 0 0 0 0.215686 0 0 0 0 0.317647 0 0 0 0 1 0 0 0 0.2 0"/><feBlend in2="BackgroundImageFix" result="effect1_dropShadow"/><feBlend in="SourceGraphic" in2="effect1_dropShadow" result="shape"/></filter><filter id="filter3_f" x="137.404" y="75.237" width="83.336" height="58.471" filterUnits="userSpaceOnUse" color-interpolation-filters="sRGB"><feFlood flood-opacity="0" result="BackgroundImageFix"/><feBlend in="SourceGraphic" in2="BackgroundImageFix" result="shape"/><feGaussianBlur stdDeviation="10" result="effect1_foregroundBlur"/></filter><filter id="filter4_d" x="292.859" y="46.515" width="15.058" height="15.058" filterUnits="userSpaceOnUse" color-interpolation-filters="sRGB"><feFlood flood-opacity="0" result="BackgroundImageFix"/><feColorMatrix in="SourceAlpha" values="0 0 0 0 0 0 0 0 0 0 0 0 0 0 0 0 0 0 127 0"/><feOffset dy="1"/><feGaussianBlur stdDeviation="1"/><feColorMatrix values="0 0 0 0 0.215686 0 0 0 0 0.317647 0 0 0 0 1 0 0 0 0.2 0"/><feBlend in2="BackgroundImageFix" result="effect1_dropShadow"/><feBlend in="SourceGraphic" in2="effect1_dropShadow" result="shape"/></filter><filter id="filter5_f" x="265.172" y="5.529" width="83.336" height="58.471" filterUnits="userSpaceOnUse" color-interpolation-filters="sRGB"><feFlood flood-opacity="0" result="BackgroundImageFix"/><feBlend in="SourceGraphic" in2="BackgroundImageFix" result="shape"/><feGaussianBlur stdDeviation="10" result="effect1_foregroundBlur"/></filter><filter id="filter6_d" x="27.739" y="225.711" width="15.058" height="15.058" filterUnits="userSpaceOnUse" color-interpolation-filters="sRGB"><feFlood flood-opacity="0" result="BackgroundImageFix"/><feColorMatrix in="SourceAlpha" values="0 0 0 0 0 0 0 0 0 0 0 0 0 0 0 0 0 0 127 0"/><feOffset dy="1"/><feGaussianBlur stdDeviation="1"/><feColorMatrix values="0 0 0 0 0.215686 0 0 0 0 0.317647 0 0 0 0 1 0 0 0 0.2 0"/><feBlend in2="BackgroundImageFix" result="effect1_dropShadow"/><feBlend in="SourceGraphic" in2="effect1_dropShadow" result="shape"/></filter><filter id="filter7_f" x=".052" y="184.726" width="83.336" height="58.471" filterUnits="userSpaceOnUse" color-interpolation-filters="sRGB"><feFlood flood-opacity="0" result="BackgroundImageFix"/><feBlend in="SourceGraphic" in2="BackgroundImageFix" result="shape"/><feGaussianBlur stdDeviation="10" result="effect1_foregroundBlur"/></filter><filter id="filter8_d" x="232.46" y="182.949" width="15.058" height="15.058" filterUnits="userSpaceOnUse" color-interpolation-filters="sRGB"><feFlood flood-opacity="0" result="BackgroundImageFix"/><feColorMatrix in="SourceAlpha" values="0 0 0 0 0 0 0 0 0 0 0 0 0 0 0 0 0 0 127 0"/><feOffset dy="1"/><feGaussianBlur stdDeviation="1"/><feColorMatrix values="0 0 0 0 0.215686 0 0 0 0 0.317647 0 0 0 0 1 0 0 0 0.2 0"/><feBlend in2="BackgroundImageFix" result="effect1_dropShadow"/><feBlend in="SourceGraphic" in2="effect1_dropShadow" result="shape"/></filter><filter id="filter9_f" x="204.773" y="141.963" width="83.336" height="58.471" filterUnits="userSpaceOnUse" color-interpolation-filters="sRGB"><feFlood flood-opacity="0" result="BackgroundImageFix"/><feBlend in="SourceGraphic" in2="BackgroundImageFix" result="shape"/><feGaussianBlur stdDeviation="10" result="effect1_foregroundBlur"/></filter><filter id="filter10_d" x="353.259" y="91.53" width="15.058" height="15.058" filterUnits="userSpaceOnUse" color-interpolation-filters="sRGB"><feFlood flood-opacity="0" result="BackgroundImageFix"/><feColorMatrix in="SourceAlpha" values="0 0 0 0 0 0 0 0 0 0 0 0 0 0 0 0 0 0 127 0"/><feOffset dy="1"/><feGaussianBlur stdDeviation="1"/><feColorMatrix values="0 0 0 0 0.215686 0 0 0 0 0.317647 0 0 0 0 1 0 0 0 0.2 0"/><feBlend in2="BackgroundImageFix" result="effect1_dropShadow"/><feBlend in="SourceGraphic" in2="effect1_dropShadow" result="shape"/></filter><filter id="filter11_f" x="325.572" y="50.544" width="83.336" height="58.471" filterUnits="userSpaceOnUse" color-interpolation-filters="sRGB"><feFlood flood-opacity="0" result="BackgroundImageFix"/><feBlend in="SourceGraphic" in2="BackgroundImageFix" result="shape"/><feGaussianBlur stdDeviation="10" result="effect1_foregroundBlur"/></filter><filter id="filter12_d" x="418.885" y="137.748" width="15.058" height="15.058" filterUnits="userSpaceOnUse" color-interpolation-filters="sRGB"><feFlood flood-opacity="0" result="BackgroundImageFix"/><feColorMatrix in="SourceAlpha" values="0 0 0 0 0 0 0 0 0 0 0 0 0 0 0 0 0 0 127 0"/><feOffset dy="1"/><feGaussianBlur stdDeviation="1"/><feColorMatrix values="0 0 0 0 0.215686 0 0 0 0 0.317647 0 0 0 0 1 0 0 0 0.2 0"/><feBlend in2="BackgroundImageFix" result="effect1_dropShadow"/><feBlend in="SourceGraphic" in2="effect1_dropShadow" result="shape"/></filter><filter id="filter13_f" x="391.198" y="96.762" width="83.336" height="58.471" filterUnits="userSpaceOnUse" color-interpolation-filters="sRGB"><feFlood flood-opacity="0" result="BackgroundImageFix"/><feBlend in="SourceGraphic" in2="BackgroundImageFix" result="shape"/><feGaussianBlur stdDeviation="10" result="effect1_foregroundBlur"/></filter></defs></svg>